<?xml version="1.0" encoding="UTF-8"?>
<svg xmlns="http://www.w3.org/2000/svg" xmlns:xlink="http://www.w3.org/1999/xlink" width="50px" height="38px" viewBox="0 0 50 38" version="1.1">
<g id="surface1">
<path style=" stroke:none;fill-rule:nonzero;fill:rgb(0%,0%,0%);fill-opacity:1;" d="M 24.523438 8.550781 C 23.128906 8.640625 21.730469 9.144531 20.582031 9.976562 C 19.566406 10.710938 18.695312 11.757812 18.183594 12.859375 C 17.730469 13.835938 17.515625 14.742188 17.488281 15.820312 C 17.441406 17.5625 17.984375 19.199219 19.070312 20.585938 C 19.328125 20.914062 19.9375 21.53125 20.261719 21.792969 C 20.667969 22.121094 21.148438 22.429688 21.617188 22.660156 C 22.445312 23.074219 23.148438 23.289062 24.085938 23.417969 C 24.484375 23.472656 25.445312 23.480469 25.84375 23.429688 C 27.441406 23.234375 28.914062 22.578125 30.042969 21.5625 C 30.394531 21.242188 30.421875 21.214844 30.660156 20.945312 C 31.648438 19.820312 32.242188 18.558594 32.476562 17.09375 C 32.523438 16.777344 32.53125 16.648438 32.53125 16.007812 C 32.53125 15.203125 32.5 14.90625 32.347656 14.285156 C 32.125 13.347656 31.65625 12.347656 31.109375 11.617188 C 30.53125 10.847656 29.765625 10.144531 28.980469 9.660156 C 28.644531 9.453125 27.96875 9.125 27.601562 8.992188 C 26.664062 8.648438 25.523438 8.488281 24.523438 8.550781 Z M 25.769531 9.726562 C 27.136719 9.867188 28.492188 10.503906 29.503906 11.484375 C 30.558594 12.503906 31.21875 13.820312 31.398438 15.277344 C 31.4375 15.59375 31.441406 16.417969 31.402344 16.722656 C 31.21875 18.113281 30.648438 19.332031 29.703125 20.324219 C 27.652344 22.492188 24.402344 22.953125 21.8125 21.445312 C 20.320312 20.578125 19.226562 19.09375 18.835938 17.417969 C 18.71875 16.910156 18.691406 16.628906 18.6875 16.007812 C 18.6875 15.382812 18.71875 15.109375 18.835938 14.597656 C 18.984375 13.960938 19.3125 13.171875 19.65625 12.640625 C 20.761719 10.925781 22.601562 9.835938 24.632812 9.699219 C 24.945312 9.675781 25.394531 9.6875 25.769531 9.726562 Z M 25.769531 9.726562 "/>
<path style=" stroke:none;fill-rule:nonzero;fill:rgb(0%,0%,0%);fill-opacity:1;" d="M 25.03125 10.785156 C 25.015625 10.820312 24.738281 11.636719 24.410156 12.597656 L 23.816406 14.347656 L 21.855469 14.355469 L 19.894531 14.359375 L 20.277344 14.644531 C 22.417969 16.242188 22.898438 16.609375 22.898438 16.640625 C 22.898438 16.65625 22.679688 17.503906 22.414062 18.519531 C 22.144531 19.539062 21.921875 20.378906 21.921875 20.394531 C 21.921875 20.40625 21.960938 20.386719 22.003906 20.355469 C 22.046875 20.320312 22.75 19.808594 23.566406 19.214844 L 25.050781 18.136719 L 25.445312 18.414062 C 25.664062 18.566406 26.292969 19.011719 26.84375 19.402344 C 27.394531 19.785156 27.941406 20.175781 28.058594 20.257812 C 28.175781 20.339844 28.277344 20.410156 28.285156 20.410156 C 28.289062 20.410156 28.273438 20.335938 28.246094 20.242188 C 28.011719 19.386719 27.296875 16.640625 27.300781 16.621094 C 27.304688 16.613281 27.960938 16.109375 28.757812 15.511719 C 29.558594 14.910156 30.214844 14.410156 30.21875 14.394531 C 30.226562 14.382812 29.839844 14.371094 29.21875 14.371094 C 28.664062 14.367188 27.78125 14.359375 27.261719 14.351562 L 26.3125 14.335938 L 26.140625 13.84375 C 25.785156 12.804688 25.171875 11.039062 25.113281 10.886719 C 25.058594 10.734375 25.050781 10.730469 25.03125 10.785156 Z M 25.03125 10.785156 "/>
<path style=" stroke:none;fill-rule:nonzero;fill:rgb(0%,0%,0%);fill-opacity:1;" d="M 24.675781 19.238281 C 24.648438 19.265625 24.683594 19.296875 24.746094 19.296875 C 24.800781 19.296875 24.804688 19.300781 24.804688 19.484375 C 24.804688 19.632812 24.8125 19.667969 24.839844 19.667969 C 24.871094 19.667969 24.878906 19.632812 24.878906 19.484375 C 24.878906 19.308594 24.878906 19.300781 24.9375 19.292969 C 24.972656 19.285156 25.003906 19.273438 25.007812 19.257812 C 25.011719 19.234375 24.703125 19.210938 24.675781 19.238281 Z M 24.675781 19.238281 "/>
<path style=" stroke:none;fill-rule:nonzero;fill:rgb(0%,0%,0%);fill-opacity:1;" d="M 25.066406 19.238281 C 25.054688 19.246094 25.046875 19.347656 25.046875 19.460938 C 25.046875 19.625 25.054688 19.667969 25.085938 19.667969 C 25.109375 19.667969 25.121094 19.632812 25.125 19.523438 L 25.132812 19.382812 L 25.183594 19.519531 C 25.210938 19.597656 25.246094 19.65625 25.269531 19.65625 C 25.285156 19.65625 25.328125 19.597656 25.355469 19.519531 L 25.410156 19.382812 L 25.421875 19.515625 C 25.425781 19.597656 25.4375 19.65625 25.460938 19.664062 C 25.480469 19.671875 25.488281 19.617188 25.488281 19.449219 C 25.488281 19.246094 25.484375 19.222656 25.441406 19.222656 C 25.40625 19.222656 25.382812 19.261719 25.34375 19.371094 C 25.3125 19.453125 25.28125 19.519531 25.269531 19.519531 C 25.265625 19.519531 25.230469 19.453125 25.199219 19.371094 C 25.148438 19.234375 25.109375 19.195312 25.066406 19.238281 Z M 25.066406 19.238281 "/>
<path style=" stroke:none;fill-rule:nonzero;fill:rgb(0%,0%,0%);fill-opacity:1;" d="M 9.089844 25.640625 C 8.835938 25.738281 8.648438 25.90625 8.5625 26.121094 C 8.507812 26.261719 8.507812 26.269531 8.507812 27.558594 C 8.507812 28.851562 8.507812 28.859375 8.5625 28.976562 C 8.679688 29.230469 8.859375 29.386719 9.15625 29.488281 C 9.292969 29.535156 9.351562 29.539062 10.355469 29.535156 L 11.414062 29.527344 L 11.421875 29.085938 L 11.425781 28.648438 L 9.449219 28.648438 L 9.449219 26.472656 L 11.425781 26.472656 L 11.425781 25.582031 L 10.335938 25.582031 C 9.253906 25.582031 9.238281 25.582031 9.089844 25.640625 Z M 9.089844 25.640625 "/>
<path style=" stroke:none;fill-rule:nonzero;fill:rgb(0%,0%,0%);fill-opacity:1;" d="M 13.207031 25.617188 C 12.925781 25.722656 12.757812 25.859375 12.652344 26.0625 L 12.585938 26.1875 L 12.570312 28.851562 L 12.632812 28.988281 C 12.722656 29.183594 12.882812 29.34375 13.09375 29.445312 L 13.269531 29.527344 L 14.246094 29.527344 C 15.210938 29.527344 15.226562 29.527344 15.363281 29.46875 C 15.632812 29.359375 15.835938 29.148438 15.90625 28.90625 C 15.941406 28.796875 15.941406 28.59375 15.9375 27.492188 L 15.929688 26.210938 L 15.855469 26.066406 C 15.773438 25.890625 15.640625 25.773438 15.429688 25.667969 L 15.269531 25.59375 L 14.28125 25.589844 C 13.507812 25.582031 13.273438 25.589844 13.207031 25.617188 Z M 14.992188 27.558594 L 14.992188 28.648438 L 13.523438 28.648438 L 13.523438 26.472656 L 14.992188 26.472656 Z M 14.992188 27.558594 "/>
<path style=" stroke:none;fill-rule:nonzero;fill:rgb(0%,0%,0%);fill-opacity:1;" d="M 17.140625 27.558594 L 17.140625 29.539062 L 17.609375 29.535156 L 18.078125 29.527344 L 18.085938 27.996094 L 18.089844 26.472656 L 19.261719 26.472656 L 19.261719 29.539062 L 20.214844 29.539062 L 20.214844 27.90625 C 20.214844 26.296875 20.214844 26.273438 20.160156 26.132812 C 20.09375 25.953125 19.917969 25.765625 19.703125 25.660156 L 19.546875 25.582031 L 17.140625 25.582031 Z M 17.140625 27.558594 "/>
<path style=" stroke:none;fill-rule:nonzero;fill:rgb(0%,0%,0%);fill-opacity:1;" d="M 21.070312 25.605469 C 21.070312 25.625 21.273438 26.277344 21.839844 28.066406 C 21.9375 28.378906 22.082031 28.839844 22.160156 29.085938 L 22.300781 29.539062 L 23.628906 29.539062 L 23.78125 29.074219 C 23.863281 28.820312 24.148438 27.9375 24.417969 27.113281 C 24.683594 26.289062 24.902344 25.609375 24.902344 25.597656 C 24.902344 25.589844 24.667969 25.582031 24.382812 25.582031 L 23.863281 25.582031 L 23.683594 26.191406 C 23.585938 26.53125 23.390625 27.203125 23.25 27.683594 C 23.109375 28.164062 22.984375 28.570312 22.976562 28.578125 C 22.96875 28.589844 22.769531 27.917969 22.535156 27.089844 L 22.105469 25.582031 L 21.589844 25.582031 C 21.265625 25.582031 21.070312 25.589844 21.070312 25.605469 Z M 21.070312 25.605469 "/>
<path style=" stroke:none;fill-rule:nonzero;fill:rgb(0%,0%,0%);fill-opacity:1;" d="M 26.378906 25.625 C 26.089844 25.726562 25.898438 25.898438 25.800781 26.148438 C 25.746094 26.285156 25.746094 26.308594 25.738281 27.496094 C 25.734375 28.273438 25.738281 28.746094 25.753906 28.824219 C 25.816406 29.117188 26.011719 29.367188 26.261719 29.46875 C 26.402344 29.527344 26.414062 29.527344 27.535156 29.535156 L 28.664062 29.542969 L 28.664062 28.648438 L 26.660156 28.648438 L 26.660156 27.980469 L 28.664062 27.980469 L 28.664062 27.140625 L 28.121094 27.140625 C 27.820312 27.140625 27.371094 27.132812 27.117188 27.121094 L 26.660156 27.105469 L 26.660156 26.472656 L 28.664062 26.472656 L 28.664062 25.582031 L 27.582031 25.582031 C 26.621094 25.582031 26.488281 25.589844 26.378906 25.625 Z M 26.378906 25.625 "/>
<path style=" stroke:none;fill-rule:nonzero;fill:rgb(0%,0%,0%);fill-opacity:1;" d="M 29.984375 27.550781 L 29.992188 29.527344 L 30.921875 29.527344 L 30.929688 28.738281 L 30.933594 27.953125 L 31.449219 27.96875 L 32.238281 29.539062 L 32.722656 29.539062 C 32.984375 29.539062 33.203125 29.527344 33.203125 29.519531 C 33.203125 29.507812 33.027344 29.171875 32.8125 28.773438 C 32.597656 28.371094 32.421875 28.035156 32.421875 28.023438 C 32.421875 28.015625 32.492188 27.976562 32.578125 27.9375 C 32.777344 27.84375 32.921875 27.695312 33.015625 27.492188 L 33.09375 27.324219 L 33.09375 26.769531 C 33.09375 26.234375 33.089844 26.207031 33.035156 26.082031 C 32.960938 25.914062 32.757812 25.726562 32.574219 25.648438 C 32.433594 25.59375 32.425781 25.59375 31.207031 25.585938 L 29.980469 25.578125 Z M 32.179688 26.78125 L 32.179688 27.113281 L 30.933594 27.113281 L 30.933594 26.445312 L 32.179688 26.445312 Z M 32.179688 26.78125 "/>
<path style=" stroke:none;fill-rule:nonzero;fill:rgb(0%,0%,0%);fill-opacity:1;" d="M 34.820312 25.65625 C 34.617188 25.757812 34.441406 25.925781 34.359375 26.09375 L 34.289062 26.234375 L 34.289062 26.792969 C 34.289062 27.464844 34.308594 27.546875 34.507812 27.746094 C 34.707031 27.949219 34.753906 27.957031 35.660156 27.957031 L 36.425781 27.957031 L 36.425781 28.648438 L 34.277344 28.648438 L 34.277344 29.542969 L 36.707031 29.527344 L 36.84375 29.460938 C 37.117188 29.332031 37.289062 29.105469 37.351562 28.785156 C 37.390625 28.589844 37.367188 27.84375 37.3125 27.671875 C 37.253906 27.492188 37.027344 27.269531 36.808594 27.179688 L 36.644531 27.113281 L 35.230469 27.113281 L 35.230469 26.445312 L 37.230469 26.445312 L 37.230469 25.582031 L 34.972656 25.582031 Z M 34.820312 25.65625 "/>
<path style=" stroke:none;fill-rule:nonzero;fill:rgb(0%,0%,0%);fill-opacity:1;" d="M 39.183594 25.628906 C 38.898438 25.71875 38.683594 25.945312 38.609375 26.226562 C 38.558594 26.425781 38.558594 28.652344 38.609375 28.855469 C 38.6875 29.15625 38.859375 29.367188 39.105469 29.46875 C 39.246094 29.527344 39.253906 29.527344 40.355469 29.527344 L 41.46875 29.527344 L 41.476562 29.097656 L 41.480469 28.671875 L 39.5 28.671875 L 39.5 27.980469 L 41.480469 27.980469 L 41.476562 27.550781 L 41.46875 27.125 L 40.484375 27.121094 L 39.5 27.113281 L 39.5 26.445312 L 41.480469 26.445312 L 41.480469 25.582031 L 40.398438 25.582031 C 39.429688 25.582031 39.304688 25.589844 39.183594 25.628906 Z M 39.183594 25.628906 "/>
</g>
</svg>
