<?xml version="1.0" encoding="UTF-8"?>
<svg xmlns="http://www.w3.org/2000/svg" xmlns:xlink="http://www.w3.org/1999/xlink" width="50px" height="38px" viewBox="0 0 50 38" version="1.1">
<g id="surface1">
<path style=" stroke:none;fill-rule:nonzero;fill:rgb(0%,0%,0%);fill-opacity:1;" d="M 26.699219 5.253906 C 26.550781 5.710938 26.550781 6.621094 26.699219 7.328125 C 26.898438 8.035156 26.648438 9.855469 26.199219 11.421875 C 25.550781 13.695312 25.25 14.148438 24.601562 13.894531 C 22.851562 13.136719 22.25 13.390625 22.25 14.753906 C 22.199219 15.511719 21.851562 16.523438 21.449219 17.027344 C 21 17.535156 19.898438 19.152344 19 20.566406 C 18.101562 22.03125 17.101562 23.246094 16.800781 23.246094 C 16.5 23.246094 16.550781 23.445312 16.949219 23.699219 C 17.851562 24.304688 19 23.851562 19 22.890625 C 19 22.488281 19.648438 21.476562 20.5 20.667969 L 21.949219 19.152344 L 22.550781 20.3125 C 23 21.121094 23 21.476562 22.550781 21.628906 C 22.25 21.730469 22 22.132812 22 22.539062 C 22 23.597656 18.648438 26.378906 12.148438 30.671875 C 11 31.480469 10.101562 32.289062 10.199219 32.59375 C 10.5 33.554688 12.398438 32.847656 16.050781 30.421875 C 18.101562 29.054688 20.75 27.4375 21.898438 26.832031 L 24.050781 25.722656 L 27.300781 26.832031 C 29.148438 27.488281 32 29.003906 33.800781 30.421875 C 37.148438 32.945312 37.898438 33.046875 39.449219 31.128906 C 40 30.519531 39.851562 30.371094 38.601562 30.421875 C 37.648438 30.472656 36.449219 29.914062 35.199219 28.902344 C 34.101562 27.996094 31.898438 26.277344 30.199219 25.0625 L 27.148438 22.839844 L 26.800781 19.152344 C 26.449219 14.804688 27.449219 9.046875 28.800781 7.480469 C 29.5 6.722656 29.601562 6.316406 29.199219 5.660156 C 28.449219 4.496094 27.050781 4.296875 26.699219 5.253906 Z M 26.699219 5.253906 "/>
</g>
</svg>
