<?xml version="1.0" encoding="UTF-8"?>
<svg xmlns="http://www.w3.org/2000/svg" xmlns:xlink="http://www.w3.org/1999/xlink" width="50px" height="38px" viewBox="0 0 50 38" version="1.1">
<g id="surface1">
<path style=" stroke:none;fill-rule:nonzero;fill:rgb(0%,0%,0%);fill-opacity:1;" d="M 36.511719 14.980469 C 35.035156 15.382812 33.390625 15.828125 32.859375 15.972656 C 32.332031 16.117188 31.675781 16.292969 31.410156 16.367188 C 31.140625 16.4375 30.113281 16.714844 29.125 16.984375 C 28.140625 17.25 27.195312 17.507812 27.027344 17.554688 C 26.859375 17.601562 26.25 17.765625 25.671875 17.921875 C 25.09375 18.078125 23.0625 18.628906 21.15625 19.144531 C 19.25 19.660156 17.605469 20.101562 17.503906 20.121094 C 16.980469 20.230469 16.3125 20.238281 15.84375 20.140625 C 14.554688 19.878906 13.757812 19.0625 13.597656 17.84375 C 13.5625 17.585938 13.582031 17.019531 13.632812 16.734375 C 13.738281 16.15625 13.980469 15.417969 14.25 14.886719 C 14.28125 14.824219 14.304688 14.765625 14.304688 14.753906 C 14.304688 14.707031 13.414062 15.832031 13.003906 16.394531 C 11.851562 17.984375 11.097656 19.429688 10.804688 20.601562 C 10.609375 21.390625 10.621094 22.175781 10.839844 22.710938 C 11.082031 23.304688 11.59375 23.800781 12.339844 24.171875 C 13.492188 24.738281 14.839844 24.71875 16.644531 24.105469 C 16.984375 23.988281 17.605469 23.75 18.117188 23.539062 C 18.863281 23.230469 22.875 21.511719 26.074219 20.125 C 26.632812 19.882812 27.378906 19.5625 27.734375 19.40625 C 28.546875 19.058594 30.804688 18.078125 33.546875 16.890625 C 34.707031 16.386719 36.464844 15.625 37.453125 15.199219 C 38.4375 14.769531 39.265625 14.398438 39.292969 14.375 C 39.347656 14.316406 39.328125 14.25 39.253906 14.253906 C 39.222656 14.253906 37.988281 14.582031 36.511719 14.980469 Z M 36.511719 14.980469 "/>
</g>
</svg>
